<?xml version="1.0" encoding="utf-8"?>
<!-- Generator: Adobe Illustrator 17.1.0, SVG Export Plug-In . SVG Version: 6.00 Build 0)  -->
<!DOCTYPE svg PUBLIC "-//W3C//DTD SVG 1.1//EN" "http://www.w3.org/Graphics/SVG/1.1/DTD/svg11.dtd">
<svg version="1.1" id="Layer_4" xmlns="http://www.w3.org/2000/svg" xmlns:xlink="http://www.w3.org/1999/xlink" x="0px" y="0px"
	 viewBox="0 0 100 100" enable-background="new 0 0 100 100" xml:space="preserve">
<g>
	<path fill="#FFFFFF" d="M-234-44.1c-20.9,17.9-20,20-20,20s0.6,0.3,4.1-2.9c0.8,0.3,4.4,1.3,8.8-3.6l-2.1-0.3l3.4-1.2
		c0.9-1.2,1.7-2.6,2.6-4.3l-1.2-0.3l1.5-0.4c0.1-0.2,0.2-0.3,0.3-0.5l-0.5-0.9l1-0.3C-235.4-40.4-234.7-42.1-234-44.1z"/>
	<path fill="#FFFFFF" d="M-236.9-43c-0.8,0.3-1.5,0.6-2.2,0.9l-0.4,0.6l0-0.4c-1.2,0.5-2.3,1.1-3.2,1.6l-0.1,0.5l-0.4-0.3
		c-0.6,0.3-1.1,0.7-1.6,1l0.1,1.7l-0.5-1.4c-2.1,1.4-3.5,2.8-4.4,4l1.4,1.4l-1.9-0.6c-1.5,2.5-1.3,4.5-1.1,5.4
		C-248.9-31.4-244.7-35.9-236.9-43z"/>
</g>
</svg>
